<svg width="126" height="36" viewBox="0 0 126 36" fill="none" xmlns="http://www.w3.org/2000/svg">
<path d="M38.5142 11.3488H27.5042C25.9297 9.52255 23.3517 8.18425 20.3945 8.36204C15.7712 8.36204 10.9559 11.4309 10.5648 17.0027C10.345 20.1338 11.1479 21.2696 13.9385 25.8922C16.7292 30.5147 1.86108 17.1731 1.86108 17.1731C2.31632 8.56253 10.7076 1.69678 20.9949 1.69678C28.8183 1.69678 35.5388 5.66519 38.5142 11.3513V11.3488Z" fill="#2753B3"/>
<path d="M28.3629 32.826C26.2526 33.7944 23.366 34.2682 20.7462 34.2682C10.3199 34.2682 1.86827 26.9843 1.86827 17.9914C1.86827 17.7438 1.85209 17.4509 1.86828 17.2033L10.8491 20.1731C11.2661 21.5952 12.7998 25.287 18.4978 26.8893C21.644 27.5766 26.0453 26.6125 28.0917 25.1686L28.3629 32.826Z" fill="#091121"/>
<path d="M39.8292 18.0106C39.8292 19.7543 39.5069 21.4337 38.907 23.009C37.199 27.512 33.1085 31.1057 28.0129 32.9435L27.918 25.2416C28.4052 24.8901 30.273 23.6286 30.5409 22.4821H22.0862V16.3461H39.7304C39.7986 16.8935 39.8316 17.4484 39.8316 18.0106H39.8292Z" fill="#2753B3"/>
<path d="M56.8118 10.7905C56.8832 10.7974 57.0428 10.8042 57.2874 10.8179V16.1816C56.9375 16.144 56.6284 16.1201 56.3566 16.1098C56.0848 16.0961 55.864 16.0927 55.6976 16.0927C53.4724 16.0927 51.9777 16.7803 51.2134 18.152C50.7853 18.9251 50.5713 20.1121 50.5713 21.7164V31.2877H45V11.2626H50.2791V14.7552C51.1318 13.4211 51.8758 12.5077 52.5111 12.0186C53.5472 11.1976 54.8924 10.7871 56.5469 10.7871C56.6488 10.7871 56.7371 10.7871 56.8084 10.7974L56.8118 10.7905Z" fill="#091121"/>
<path d="M74.7928 11.6663C76.2672 12.2923 77.4867 13.2809 78.4481 14.6287C79.3144 15.8191 79.8749 17.1977 80.1331 18.7678C80.2826 19.688 80.3437 21.0118 80.3166 22.7427H64.9106C64.9955 24.7507 65.7327 26.16 67.1221 26.9673C67.968 27.4702 68.9837 27.7199 70.1727 27.7199C71.4331 27.7199 72.4556 27.4154 73.2437 26.7997C73.6718 26.4679 74.0522 26.0095 74.3818 25.4211H80.0278C79.8783 26.6081 79.1955 27.8157 77.9759 29.0403C76.0803 30.9867 73.4272 31.9616 70.0165 31.9616C67.2002 31.9616 64.7169 31.1406 62.5632 29.4987C60.4128 27.8567 59.3359 25.1817 59.3359 21.4804C59.3359 18.0118 60.3075 15.3504 62.2506 13.4998C64.1938 11.6492 66.7144 10.7222 69.816 10.7222C71.6573 10.7222 73.3151 11.0369 74.7928 11.6595V11.6663ZM66.5174 16.1885C65.7361 16.9514 65.2435 17.9844 65.0431 19.2877H74.572C74.4701 17.8989 73.9809 16.8419 73.0977 16.1235C72.2144 15.4052 71.1239 15.0426 69.816 15.0426C68.396 15.0426 67.2954 15.4257 66.514 16.1885H66.5174Z" fill="#091121"/>
<path d="M89.2374 31.2845H83.7069V4.20239H89.2374V31.2845Z" fill="#091121"/>
<path d="M100.794 8.87161H95.1858V4.03809H100.794V8.87161ZM95.1858 11.2593H100.794V31.2844H95.1858V11.2593Z" fill="#091121"/>
<path d="M123.688 12.4085C125.074 13.4929 125.767 15.2888 125.767 17.7997V31.2843H120.1V19.103C120.1 18.0494 119.954 17.2421 119.659 16.6776C119.119 15.648 118.093 15.1349 116.578 15.1349C114.716 15.1349 113.439 15.8875 112.742 17.396C112.382 18.193 112.202 19.209 112.202 20.4473V31.2877H106.672V11.2968H112.029V14.2181C112.739 13.1885 113.408 12.4496 114.04 11.9946C115.175 11.1873 116.612 10.7837 118.351 10.7837C120.528 10.7837 122.308 11.3242 123.695 12.4085H123.688Z" fill="#091121"/>
</svg>
