<svg width="601" height="515" viewBox="0 0 601 515" fill="none" xmlns="http://www.w3.org/2000/svg">
<path d="M579.216 152.528H405.229C380.347 123.668 339.609 102.519 292.877 105.329C219.816 105.329 143.722 153.825 137.541 241.873C134.068 291.353 146.756 309.302 190.856 382.351C234.955 455.399 4.43403e-09 244.567 4.43403e-09 244.567C7.19385 108.497 139.798 0 302.364 0C425.995 0 532.197 62.7114 579.216 152.567V152.528Z" fill="#2753B3"/>
<path d="M418.799 491.923C385.451 507.227 339.835 514.714 298.434 514.714C133.671 514.714 0.113632 399.609 0.113632 257.499C0.113632 253.585 -0.142086 248.957 0.113701 245.043L142.035 291.975C148.625 314.448 172.86 372.788 262.903 398.108C312.622 408.969 382.174 393.735 414.513 370.917L418.799 491.923Z" fill="white"/>
<path d="M599.996 257.801C599.996 285.357 594.903 311.895 585.423 336.789C558.433 407.949 493.792 464.738 413.268 493.781L411.768 372.069C419.467 366.516 448.984 346.581 453.216 328.463H319.61V231.498H598.435C599.513 240.149 600.034 248.916 600.034 257.801H599.996Z" fill="#2753B3"/>
</svg>
